<?xml version="1.0" encoding="UTF-8"?>
<svg id="Capa_2" data-name="Capa 2" xmlns="http://www.w3.org/2000/svg" viewBox="0 0 597.2 372.8">
  <defs>
    <style>
      .cls-1 {
        fill: #fff;
      }

      .cls-2 {
        fill: #fed70d;
      }
    </style>
  </defs>
  <g id="Capa_1-2" data-name="Capa 1">
    <g>
      <g>
        <path class="cls-1" d="M40.6,341.3c-1.4,3.1-3.9,5.7-7.7,7.8-3.7,2-8.3,3-13.6,3-2.7,0-5.2-.3-7.6-.9s-4.4-1.5-6.1-2.7-3.1-2.8-4.1-4.7c-1-1.9-1.5-4.1-1.5-6.7,0-4.6,1.7-8,5-10.1,3.3-2.2,8.5-3.7,15.7-4.5l18.3-2.2c0-2.2-.2-4.2-.7-6-.5-1.7-1.3-3.2-2.5-4.4s-2.8-2.1-4.8-2.7-4.6-.9-7.8-.9c-2.9,0-5.3.3-7.1.9-1.9.6-3.4,1.4-4.5,2.4s-1.9,2.1-2.3,3.4-.6,2.7-.6,4H1.4c0-2,.3-3.9,1-5.9s1.8-3.8,3.4-5.4,3.8-2.9,6.6-3.9,6.4-1.5,10.7-1.5c5,0,9.1.5,12.1,1.6,3,1,5.4,2.5,7,4.4s2.7,4.2,3.2,6.9.8,5.8.8,9.1v28.9h-4.1l-1.5-9.9ZM21.7,328.3c-5.2.7-8.8,1.7-10.9,3s-3.1,3.2-3.1,5.8c0,3,1.2,5.3,3.5,6.8s5.6,2.3,9.7,2.3c2.5,0,4.8-.4,7-1.1s4.1-1.8,5.7-3.2c1.6-1.4,2.9-3.2,3.8-5.3s1.4-4.5,1.4-7.3v-3.4l-17.1,2.4Z"/>
        <path class="cls-1" d="M121.8,364.7c-.8,1.6-2.1,3-3.9,4.2-1.9,1.2-4.4,2.2-7.5,2.9-3.1.7-7,1-11.8,1s-9-.5-12.2-1.4c-3.2-1-5.8-2.2-7.7-3.8-1.9-1.6-3.2-3.5-3.9-5.6-.8-2.1-1.1-4.3-1.1-6.5h7.5c0,1.5.2,3,.7,4.3s1.4,2.6,2.7,3.6,3,1.8,5.3,2.5c2.3.6,5.2.9,8.8.9,3.4,0,6.2-.2,8.4-.5,2.2-.3,3.9-.8,5.1-1.4s2.1-1.3,2.5-2.2.6-1.7.6-2.7c0-1.5-.6-2.7-1.8-3.7s-2.7-1.7-4.6-2.3-4.1-1.1-6.5-1.4c-2.5-.4-5-.7-7.5-1.1s-5-.8-7.5-1.2c-2.5-.5-4.6-1.1-6.5-1.9s-3.4-1.9-4.6-3.1-1.8-2.9-1.8-4.8c0-2,.7-3.7,2.1-4.9,1.4-1.2,3.4-2.2,5.9-2.8-2.7-1.5-4.5-3.5-5.6-6-1-2.5-1.5-5-1.5-7.7s.3-4.9,1-7.1,1.9-4.1,3.6-5.7c1.8-1.6,4.2-2.9,7.2-3.7,3-.9,7-1.3,11.8-1.3h21.9v3.7l-8.4,1.4c2.5.9,4.3,2.5,5.6,4.7,1.2,2.2,1.8,4.9,1.8,8.2,0,2.7-.3,5.1-.9,7.3-.6,2.2-1.8,4.1-3.4,5.8-1.6,1.6-3.9,2.9-6.8,3.8s-6.6,1.3-11.2,1.3c-2.3,0-4.3-.1-6-.2-1.7-.2-3.1-.5-4.3-.9-2.3.3-3.8.8-4.5,1.5-.7.8-1,1.5-1,2.2,0,1.5,1,2.6,3,3.3,2,.7,4.6,1.3,7.6,1.8s6.3,1,9.9,1.4,6.9,1.2,9.9,2.1c3,1,5.5,2.3,7.6,4,2,1.7,3,4.1,3,7,.1,1.8-.2,3.4-1,5ZM111.8,314.3c-.4-1.4-1.1-2.7-2.2-3.7s-2.6-1.9-4.5-2.5-4.4-.9-7.5-.9-5.4.3-7.3.8c-1.9.6-3.4,1.3-4.5,2.4s-1.8,2.3-2.3,3.7-.6,3.1-.6,4.9.2,3.5.6,5.1,1.1,2.9,2.2,4,2.6,2,4.5,2.7,4.4,1,7.5,1,5.4-.3,7.2-.9c1.9-.6,3.3-1.5,4.4-2.7,1.1-1.1,1.8-2.5,2.3-4,.4-1.5.6-3.3.6-5.2.1-1.7-.1-3.3-.4-4.7Z"/>
        <path class="cls-1" d="M192.5,342.2c-.9,1.7-2.2,3.3-4,4.8s-4.1,2.7-6.9,3.6c-2.8,1-6.2,1.4-10.2,1.4-5.1,0-9.3-.7-12.6-2.2-3.3-1.4-5.9-3.4-7.7-5.8-1.9-2.4-3.1-5.2-3.8-8.3-.7-3.1-1-6.4-1-9.8,0-3.2.4-6.4,1.1-9.4.8-3.1,2.1-5.8,3.9-8.2,1.9-2.4,4.4-4.3,7.7-5.7,3.2-1.4,7.4-2.2,12.3-2.2,4.4,0,8,.7,11,2,2.9,1.3,5.3,3.1,7,5.4s3,4.9,3.7,8c.7,3,1.1,6.3,1.1,9.8v1.9c0,.5,0,1.1-.1,1.9h-40c.1,2.5.5,4.8,1.2,6.8.7,2.1,1.7,3.9,3,5.4,1.4,1.5,3.1,2.7,5.2,3.5s4.7,1.2,7.8,1.2c2.6,0,4.9-.3,6.7-.9,1.8-.6,3.3-1.3,4.5-2.2s2.1-1.9,2.8-2.9c.7-1,1.1-2.1,1.3-3h7.7c-.3,1.5-.8,3.2-1.7,4.9ZM185.6,316.8c-.6-2.1-1.5-3.9-2.8-5.4s-2.9-2.7-4.9-3.6-4.4-1.3-7.2-1.3c-3.2,0-5.9.5-8,1.4s-3.8,2.2-5.1,3.7c-1.3,1.6-2.2,3.4-2.8,5.5-.6,2.1-.9,4.2-.9,6.4h32.5c.1-2.4-.2-4.7-.8-6.7Z"/>
        <path class="cls-1" d="M261,324.1c0-2.7-.2-5.1-.5-7.2-.4-2.1-1.1-3.9-2.1-5.4s-2.6-2.6-4.5-3.4c-2-.8-4.6-1.2-7.8-1.2s-5.8.4-7.9,1.1c-2,.8-3.6,1.9-4.8,3.3-1.2,1.5-2,3.3-2.4,5.4s-.6,4.6-.6,7.3v27.4h-7.4v-50.4h3.4l2.2,9.1c.5-1.3,1.2-2.6,2.2-3.7,1-1.2,2.2-2.2,3.8-3.1,1.5-.9,3.4-1.6,5.7-2.1,2.2-.5,4.9-.8,7.9-.8,4.3,0,7.7.6,10.4,1.7,2.7,1.1,4.7,2.8,6.2,4.9s2.5,4.6,3,7.6.8,6.3.8,9.9v26.8h-7.4v-27.2h-.2Z"/>
        <path class="cls-1" d="M338,346.7c-3.5,3.6-9.1,5.4-16.8,5.4-4.9,0-9-.7-12.1-2.2-3.2-1.4-5.7-3.3-7.5-5.7-1.8-2.4-3.1-5.1-3.8-8.2-.7-3.1-1.1-6.3-1.1-9.7s.4-6.6,1.1-9.7,2-5.9,3.8-8.2c1.8-2.4,4.3-4.3,7.4-5.7,3.1-1.4,7.1-2.2,12-2.2,7.7,0,13.4,1.9,17,5.6s5.4,8.7,5.4,14.9h-7.5c-.3-4.5-1.5-8-3.8-10.5s-6-3.7-11.3-3.7c-3.3,0-6.1.5-8.3,1.5-2.2,1-3.9,2.4-5.2,4.1-1.3,1.7-2.2,3.8-2.7,6.1-.5,2.4-.7,4.9-.7,7.6s.2,5.2.7,7.6,1.4,4.5,2.7,6.2c1.3,1.8,3,3.2,5.2,4.2s5,1.6,8.3,1.6c5.2,0,9-1.2,11.3-3.7s3.5-5.9,3.7-10.4h7.5c0,6.5-1.7,11.5-5.3,15.1Z"/>
        <path class="cls-1" d="M417.9,358.9c-.6,2.4-1.7,4.6-3.3,6.5s-4,3.5-7,4.7-7,1.8-11.9,1.8c-4.5,0-8.3-.5-11.3-1.4s-5.3-2.1-7-3.6-2.9-3.2-3.6-5.1-1-3.9-1-5.9h7.4c.1,1.4.3,2.7.7,3.9.4,1.2,1.1,2.3,2.3,3.2,1.1.9,2.7,1.7,4.7,2.2,2,.6,4.6.8,7.9.8s6-.4,8.1-1.1,3.7-1.8,4.8-3c1.1-1.3,1.9-2.7,2.3-4.4.4-1.6.5-3.4.5-5.2v-8.7c-1.1,2.6-3,4.7-5.7,6.3-2.7,1.6-6.7,2.4-12,2.4-4.3,0-7.7-.6-10.4-1.7-2.7-1.1-4.7-2.7-6.2-4.8-1.5-2.1-2.5-4.6-3-7.5s-.8-6.3-.8-9.9v-27h7.3v27.6c0,2.7.2,5.1.5,7.2.4,2.1,1.1,3.9,2.2,5.4,1.1,1.4,2.6,2.5,4.6,3.3s4.6,1.1,7.8,1.1,5.9-.4,7.9-1.1,3.7-1.9,4.8-3.3c1.1-1.5,1.9-3.3,2.4-5.5.4-2.2.6-4.6.6-7.4v-27.3h7.4v50.5c-.1,2.1-.4,4.6-1,7Z"/>
      </g>
      <g>
        <polygon class="cls-1" points="1.2 91.5 59.3 91.5 59.3 79.7 14.8 79.7 14.8 55 55.6 55 55.6 43.1 14.8 43.1 14.8 20.2 59.3 20.2 59.3 8.3 1.2 8.3 1.2 91.5"/>
        <path class="cls-1" d="M125.4,32.6c-2.1-2.9-5-5.2-8.6-6.8-3.6-1.5-8.2-2.3-13.8-2.3-3.9,0-7.4.4-10.4,1-3,.7-5.6,1.7-7.6,2.9-2.1,1.2-3.9,2.7-5.3,4.3-.2.2-.3.4-.5.6l-1.9-8.1h-7.8v67.3h13.2v-36.5c0-3.3.3-6.3.8-8.8.5-2.4,1.4-4.4,2.6-6,1.3-1.6,3-2.8,5.2-3.6,2.3-.9,5.4-1.3,9.2-1.3s6.8.5,9.1,1.3c2.1.9,3.7,2,4.8,3.6,1.1,1.6,1.9,3.6,2.3,6,.4,2.6.7,5.5.7,8.8v36.5h13.2v-35.8c0-4.6-.3-8.9-1-12.8-.8-4-2.2-7.5-4.2-10.3Z"/>
        <path class="cls-1" d="M253.1,31.7c-2.3-2.7-5.6-4.7-9.7-6.1-4-1.4-9.4-2.1-15.9-2.1-5.7,0-10.4.7-14.2,2-3.8,1.3-6.9,3.1-9.1,5.3-2.2,2.2-3.8,4.8-4.7,7.5-.9,2.7-1.3,5.4-1.3,8v2h13.1v-2c0-1.5.2-3,.7-4.5.4-1.3,1.2-2.5,2.3-3.5,1.2-1,2.9-1.9,4.9-2.6,2.2-.7,5-1,8.4-1,3.8,0,6.9.4,9.2,1,2.2.6,4,1.6,5.2,2.9,1.3,1.2,2.1,2.8,2.6,4.6.4,1.6.7,3.3.8,5.3l-21.3,2.5c-9.4,1.1-16.1,3.1-20.6,6-4.7,3.1-7.1,7.9-7.1,14.4,0,3.5.7,6.7,2.2,9.3,1.4,2.7,3.4,4.9,5.8,6.6s5.2,2.9,8.4,3.7c3.1.8,6.5,1.2,10,1.2,7,0,13.1-1.4,18-4.1,3.1-1.7,5.7-3.7,7.6-6l1.4,9.4h8.8v-38.4c0-4.3-.3-8.3-1-11.8-.7-3.7-2.2-7-4.5-9.6ZM245.5,61.7c0,3.2-.5,6-1.6,8.4s-2.5,4.4-4.3,6-4,2.8-6.5,3.6c-2.6.8-5.3,1.3-8.2,1.3-4.8,0-8.6-.9-11.2-2.6-2.4-1.6-3.6-3.9-3.6-7,0-2.5,1-4.3,3-5.6,2.4-1.5,6.8-2.6,13-3.5l19.5-2.7v2.1h-.1Z"/>
        <path class="cls-1" d="M183.6,0h-18.7v8.8h8.8v82.7h13.1V3.1c-.1-1.6-1.5-3.1-3.2-3.1Z"/>
      </g>
      <path class="cls-1" d="M34.9,252H1.3V123.7h63.6c19.1,0,32.8,3.6,41.2,10.7,8.4,7.1,12.6,19.2,12.6,36.2v81.4h-34.3v-77c0-9.5-1.2-15.6-3.6-18.3-2.7-3.1-8.9-4.6-18.5-4.6h-27.3v99.9h-.1Z"/>
      <path class="cls-1" d="M224.8,123.7h33.9v128.3h-63.8c-18.9,0-32.4-3.8-40.7-11.3-8.3-7.6-12.4-19.5-12.4-35.7v-81.3h33.6v78.9c0,7.2,1.1,12.2,3.2,15.1,3.2,4.2,9.4,6.3,18.7,6.3h27.6v-100.3h-.1Z"/>
      <path class="cls-1" d="M428.8,187.6c0,3.2,0,6.3.1,9.2v-17.8c-.1,2.7-.1,5.6-.1,8.6Z"/>
      <path class="cls-1" d="M506.8,226.2c-5.2.1-10.7.1-16.8.1h-4.4c-15.7,0-22.1-2-22.7-22.7h43c24.4-.3,36.7-11.8,36.7-34.3,0-2.1,0-4.1-.1-6.1-.3-7.2-1.3-13.2-2.8-18.2-4.1-10.1-12.3-18.1-22.6-22-4.4-1.7-9.1-2.6-14-2.6h-34.6c-21.8,0-39.5,17.7-39.5,39.5v56.5c0,21.8,17.7,39.5,39.5,39.5.7,0,1.4,0,2.2-.1h0c1,0,2.1.1,3.2.1,22.8,0,46.3-.8,64.2-6.9l2.1-.7v-25.3l-3.6.6c-10.9,1.9-19.8,2.4-29.8,2.6ZM462.9,149.5h38c4.2,0,7.7,3.4,7.7,7.7v10.3c0,4.5-3.6,8.1-8.1,8.1h-37.6v-26.1Z"/>
      <path class="cls-1" d="M282.2,252V76.8h33.6v46.8h29.5c21,0,36.8,5.1,47.4,15.3,11.6,11.2,17.3,28.5,17.3,52,0,9.9-1.7,19-5.2,27.3-4.3,10.1-10.7,18-19.3,23.6-10.1,6.7-22.9,10-38.4,10h-64.9v.2ZM336.8,151.6h-20.9v72.8l10.5.2c11.6,0,20-.5,25.2-1.4,7.1-1.3,12.4-3.8,15.8-7.6,3.8-4.2,6.1-10.5,6.8-18.9.3-3.2.5-6.5.5-10,0-13.5-3.4-22.9-10.1-28.3-5.9-4.5-15.2-6.8-27.8-6.8Z"/>
      <rect class="cls-1" x="568.7" y="223.3" width="28.5" height="28.5"/>
      <g>
        <path class="cls-1" d="M40.6,341.3c-1.4,3.1-3.9,5.7-7.7,7.8-3.7,2-8.3,3-13.6,3-2.7,0-5.2-.3-7.6-.9s-4.4-1.5-6.1-2.7-3.1-2.8-4.1-4.7c-1-1.9-1.5-4.1-1.5-6.7,0-4.6,1.7-8,5-10.1,3.3-2.2,8.5-3.7,15.7-4.5l18.3-2.2c0-2.2-.2-4.2-.7-6-.5-1.7-1.3-3.2-2.5-4.4s-2.8-2.1-4.8-2.7-4.6-.9-7.8-.9c-2.9,0-5.3.3-7.1.9-1.9.6-3.4,1.4-4.5,2.4s-1.9,2.1-2.3,3.4-.6,2.7-.6,4H1.4c0-2,.3-3.9,1-5.9s1.8-3.8,3.4-5.4,3.8-2.9,6.6-3.9,6.4-1.5,10.7-1.5c5,0,9.1.5,12.1,1.6,3,1,5.4,2.5,7,4.4s2.7,4.2,3.2,6.9.8,5.8.8,9.1v28.9h-4.1l-1.5-9.9ZM21.7,328.3c-5.2.7-8.8,1.7-10.9,3s-3.1,3.2-3.1,5.8c0,3,1.2,5.3,3.5,6.8s5.6,2.3,9.7,2.3c2.5,0,4.8-.4,7-1.1s4.1-1.8,5.7-3.2c1.6-1.4,2.9-3.2,3.8-5.3s1.4-4.5,1.4-7.3v-3.4l-17.1,2.4Z"/>
        <path class="cls-1" d="M121.8,364.7c-.8,1.6-2.1,3-3.9,4.2-1.9,1.2-4.4,2.2-7.5,2.9-3.1.7-7,1-11.8,1s-9-.5-12.2-1.4c-3.2-1-5.8-2.2-7.7-3.8-1.9-1.6-3.2-3.5-3.9-5.6-.8-2.1-1.1-4.3-1.1-6.5h7.5c0,1.5.2,3,.7,4.3s1.4,2.6,2.7,3.6,3,1.8,5.3,2.5c2.3.6,5.2.9,8.8.9,3.4,0,6.2-.2,8.4-.5,2.2-.3,3.9-.8,5.1-1.4s2.1-1.3,2.5-2.2.6-1.7.6-2.7c0-1.5-.6-2.7-1.8-3.7s-2.7-1.7-4.6-2.3-4.1-1.1-6.5-1.4c-2.5-.4-5-.7-7.5-1.1s-5-.8-7.5-1.2c-2.5-.5-4.6-1.1-6.5-1.9s-3.4-1.9-4.6-3.1-1.8-2.9-1.8-4.8c0-2,.7-3.7,2.1-4.9,1.4-1.2,3.4-2.2,5.9-2.8-2.7-1.5-4.5-3.5-5.6-6-1-2.5-1.5-5-1.5-7.7s.3-4.9,1-7.1,1.9-4.1,3.6-5.7c1.8-1.6,4.2-2.9,7.2-3.7,3-.9,7-1.3,11.8-1.3h21.9v3.7l-8.4,1.4c2.5.9,4.3,2.5,5.6,4.7,1.2,2.2,1.8,4.9,1.8,8.2,0,2.7-.3,5.1-.9,7.3-.6,2.2-1.8,4.1-3.4,5.8-1.6,1.6-3.9,2.9-6.8,3.8s-6.6,1.3-11.2,1.3c-2.3,0-4.3-.1-6-.2-1.7-.2-3.1-.5-4.3-.9-2.3.3-3.8.8-4.5,1.5-.7.8-1,1.5-1,2.2,0,1.5,1,2.6,3,3.3,2,.7,4.6,1.3,7.6,1.8s6.3,1,9.9,1.4,6.9,1.2,9.9,2.1c3,1,5.5,2.3,7.6,4,2,1.7,3,4.1,3,7,.1,1.8-.2,3.4-1,5ZM111.8,314.3c-.4-1.4-1.1-2.7-2.2-3.7s-2.6-1.9-4.5-2.5-4.4-.9-7.5-.9-5.4.3-7.3.8c-1.9.6-3.4,1.3-4.5,2.4s-1.8,2.3-2.3,3.7-.6,3.1-.6,4.9.2,3.5.6,5.1,1.1,2.9,2.2,4,2.6,2,4.5,2.7,4.4,1,7.5,1,5.4-.3,7.2-.9c1.9-.6,3.3-1.5,4.4-2.7,1.1-1.1,1.8-2.5,2.3-4,.4-1.5.6-3.3.6-5.2.1-1.7-.1-3.3-.4-4.7Z"/>
        <path class="cls-1" d="M192.5,342.2c-.9,1.7-2.2,3.3-4,4.8s-4.1,2.7-6.9,3.6c-2.8,1-6.2,1.4-10.2,1.4-5.1,0-9.3-.7-12.6-2.2-3.3-1.4-5.9-3.4-7.7-5.8-1.9-2.4-3.1-5.2-3.8-8.3-.7-3.1-1-6.4-1-9.8,0-3.2.4-6.4,1.1-9.4.8-3.1,2.1-5.8,3.9-8.2,1.9-2.4,4.4-4.3,7.7-5.7,3.2-1.4,7.4-2.2,12.3-2.2,4.4,0,8,.7,11,2,2.9,1.3,5.3,3.1,7,5.4s3,4.9,3.7,8c.7,3,1.1,6.3,1.1,9.8v1.9c0,.5,0,1.1-.1,1.9h-40c.1,2.5.5,4.8,1.2,6.8.7,2.1,1.7,3.9,3,5.4,1.4,1.5,3.1,2.7,5.2,3.5s4.7,1.2,7.8,1.2c2.6,0,4.9-.3,6.7-.9,1.8-.6,3.3-1.3,4.5-2.2s2.1-1.9,2.8-2.9c.7-1,1.1-2.1,1.3-3h7.7c-.3,1.5-.8,3.2-1.7,4.9ZM185.6,316.8c-.6-2.1-1.5-3.9-2.8-5.4s-2.9-2.7-4.9-3.6-4.4-1.3-7.2-1.3c-3.2,0-5.9.5-8,1.4s-3.8,2.2-5.1,3.7c-1.3,1.6-2.2,3.4-2.8,5.5-.6,2.1-.9,4.2-.9,6.4h32.5c.1-2.4-.2-4.7-.8-6.7Z"/>
        <path class="cls-1" d="M261,324.1c0-2.7-.2-5.1-.5-7.2-.4-2.1-1.1-3.9-2.1-5.4s-2.6-2.6-4.5-3.4c-2-.8-4.6-1.2-7.8-1.2s-5.8.4-7.9,1.1c-2,.8-3.6,1.9-4.8,3.3-1.2,1.5-2,3.3-2.4,5.4s-.6,4.6-.6,7.3v27.4h-7.4v-50.4h3.4l2.2,9.1c.5-1.3,1.2-2.6,2.2-3.7,1-1.2,2.2-2.2,3.8-3.1,1.5-.9,3.4-1.6,5.7-2.1,2.2-.5,4.9-.8,7.9-.8,4.3,0,7.7.6,10.4,1.7,2.7,1.1,4.7,2.8,6.2,4.9s2.5,4.6,3,7.6.8,6.3.8,9.9v26.8h-7.4v-27.2h-.2Z"/>
        <path class="cls-1" d="M338,346.7c-3.5,3.6-9.1,5.4-16.8,5.4-4.9,0-9-.7-12.1-2.2-3.2-1.4-5.7-3.3-7.5-5.7-1.8-2.4-3.1-5.1-3.8-8.2-.7-3.1-1.1-6.3-1.1-9.7s.4-6.6,1.1-9.7,2-5.9,3.8-8.2c1.8-2.4,4.3-4.3,7.4-5.7,3.1-1.4,7.1-2.2,12-2.2,7.7,0,13.4,1.9,17,5.6s5.4,8.7,5.4,14.9h-7.5c-.3-4.5-1.5-8-3.8-10.5s-6-3.7-11.3-3.7c-3.3,0-6.1.5-8.3,1.5-2.2,1-3.9,2.4-5.2,4.1-1.3,1.7-2.2,3.8-2.7,6.1-.5,2.4-.7,4.9-.7,7.6s.2,5.2.7,7.6,1.4,4.5,2.7,6.2c1.3,1.8,3,3.2,5.2,4.2s5,1.6,8.3,1.6c5.2,0,9-1.2,11.3-3.7s3.5-5.9,3.7-10.4h7.5c0,6.5-1.7,11.5-5.3,15.1Z"/>
        <path class="cls-1" d="M417.9,358.9c-.6,2.4-1.7,4.6-3.3,6.5s-4,3.5-7,4.7-7,1.8-11.9,1.8c-4.5,0-8.3-.5-11.3-1.4s-5.3-2.1-7-3.6-2.9-3.2-3.6-5.1-1-3.9-1-5.9h7.4c.1,1.4.3,2.7.7,3.9.4,1.2,1.1,2.3,2.3,3.2,1.1.9,2.7,1.7,4.7,2.2,2,.6,4.6.8,7.9.8s6-.4,8.1-1.1,3.7-1.8,4.8-3c1.1-1.3,1.9-2.7,2.3-4.4.4-1.6.5-3.4.5-5.2v-8.7c-1.1,2.6-3,4.7-5.7,6.3-2.7,1.6-6.7,2.4-12,2.4-4.3,0-7.7-.6-10.4-1.7-2.7-1.1-4.7-2.7-6.2-4.8-1.5-2.1-2.5-4.6-3-7.5s-.8-6.3-.8-9.9v-27h7.3v27.6c0,2.7.2,5.1.5,7.2.4,2.1,1.1,3.9,2.2,5.4,1.1,1.4,2.6,2.5,4.6,3.3s4.6,1.1,7.8,1.1,5.9-.4,7.9-1.1,3.7-1.9,4.8-3.3c1.1-1.5,1.9-3.3,2.4-5.5.4-2.2.6-4.6.6-7.4v-27.3h7.4v50.5c-.1,2.1-.4,4.6-1,7Z"/>
      </g>
      <g>
        <polygon class="cls-1" points="1.2 91.5 59.3 91.5 59.3 79.7 14.8 79.7 14.8 55 55.6 55 55.6 43.1 14.8 43.1 14.8 20.2 59.3 20.2 59.3 8.3 1.2 8.3 1.2 91.5"/>
        <path class="cls-1" d="M125.4,32.6c-2.1-2.9-5-5.2-8.6-6.8-3.6-1.5-8.2-2.3-13.8-2.3-3.9,0-7.4.4-10.4,1-3,.7-5.6,1.7-7.6,2.9-2.1,1.2-3.9,2.7-5.3,4.3-.2.2-.3.4-.5.6l-1.9-8.1h-7.8v67.3h13.2v-36.5c0-3.3.3-6.3.8-8.8.5-2.4,1.4-4.4,2.6-6,1.3-1.6,3-2.8,5.2-3.6,2.3-.9,5.4-1.3,9.2-1.3s6.8.5,9.1,1.3c2.1.9,3.7,2,4.8,3.6,1.1,1.6,1.9,3.6,2.3,6,.4,2.6.7,5.5.7,8.8v36.5h13.2v-35.8c0-4.6-.3-8.9-1-12.8-.8-4-2.2-7.5-4.2-10.3Z"/>
        <path class="cls-1" d="M253.1,31.7c-2.3-2.7-5.6-4.7-9.7-6.1-4-1.4-9.4-2.1-15.9-2.1-5.7,0-10.4.7-14.2,2-3.8,1.3-6.9,3.1-9.1,5.3-2.2,2.2-3.8,4.8-4.7,7.5-.9,2.7-1.3,5.4-1.3,8v2h13.1v-2c0-1.5.2-3,.7-4.5.4-1.3,1.2-2.5,2.3-3.5,1.2-1,2.9-1.9,4.9-2.6,2.2-.7,5-1,8.4-1,3.8,0,6.9.4,9.2,1,2.2.6,4,1.6,5.2,2.9,1.3,1.2,2.1,2.8,2.6,4.6.4,1.6.7,3.3.8,5.3l-21.3,2.5c-9.4,1.1-16.1,3.1-20.6,6-4.7,3.1-7.1,7.9-7.1,14.4,0,3.5.7,6.7,2.2,9.3,1.4,2.7,3.4,4.9,5.8,6.6s5.2,2.9,8.4,3.7c3.1.8,6.5,1.2,10,1.2,7,0,13.1-1.4,18-4.1,3.1-1.7,5.7-3.7,7.6-6l1.4,9.4h8.8v-38.4c0-4.3-.3-8.3-1-11.8-.7-3.7-2.2-7-4.5-9.6ZM245.5,61.7c0,3.2-.5,6-1.6,8.4s-2.5,4.4-4.3,6-4,2.8-6.5,3.6c-2.6.8-5.3,1.3-8.2,1.3-4.8,0-8.6-.9-11.2-2.6-2.4-1.6-3.6-3.9-3.6-7,0-2.5,1-4.3,3-5.6,2.4-1.5,6.8-2.6,13-3.5l19.5-2.7v2.1h-.1Z"/>
        <path class="cls-1" d="M183.6,0h-18.7v8.8h8.8v82.7h13.1V3.1c-.1-1.6-1.5-3.1-3.2-3.1Z"/>
      </g>
      <path class="cls-1" d="M34.9,252H1.3V123.7h63.6c19.1,0,32.8,3.6,41.2,10.7,8.4,7.1,12.6,19.2,12.6,36.2v81.4h-34.3v-77c0-9.5-1.2-15.6-3.6-18.3-2.7-3.1-8.9-4.6-18.5-4.6h-27.3v99.9h-.1Z"/>
      <path class="cls-1" d="M224.8,123.7h33.9v128.3h-63.8c-18.9,0-32.4-3.8-40.7-11.3-8.3-7.6-12.4-19.5-12.4-35.7v-81.3h33.6v78.9c0,7.2,1.1,12.2,3.2,15.1,3.2,4.2,9.4,6.3,18.7,6.3h27.6v-100.3h-.1Z"/>
      <path class="cls-1" d="M428.8,187.6c0,3.2,0,6.3.1,9.2v-17.8c-.1,2.7-.1,5.6-.1,8.6Z"/>
      <path class="cls-1" d="M506.8,226.2c-5.2.1-10.7.1-16.8.1h-4.4c-15.7,0-22.1-2-22.7-22.7h43c24.4-.3,36.7-11.8,36.7-34.3,0-2.1,0-4.1-.1-6.1-.3-7.2-1.3-13.2-2.8-18.2-4.1-10.1-12.3-18.1-22.6-22-4.4-1.7-9.1-2.6-14-2.6h-34.6c-21.8,0-39.5,17.7-39.5,39.5v56.5c0,21.8,17.7,39.5,39.5,39.5.7,0,1.4,0,2.2-.1h0c1,0,2.1.1,3.2.1,22.8,0,46.3-.8,64.2-6.9l2.1-.7v-25.3l-3.6.6c-10.9,1.9-19.8,2.4-29.8,2.6ZM462.9,149.5h38c4.2,0,7.7,3.4,7.7,7.7v10.3c0,4.5-3.6,8.1-8.1,8.1h-37.6v-26.1Z"/>
      <path class="cls-1" d="M282.2,252V76.8h33.6v46.8h29.5c21,0,36.8,5.1,47.4,15.3,11.6,11.2,17.3,28.5,17.3,52,0,9.9-1.7,19-5.2,27.3-4.3,10.1-10.7,18-19.3,23.6-10.1,6.7-22.9,10-38.4,10h-64.9v.2ZM336.8,151.6h-20.9v72.8l10.5.2c11.6,0,20-.5,25.2-1.4,7.1-1.3,12.4-3.8,15.8-7.6,3.8-4.2,6.1-10.5,6.8-18.9.3-3.2.5-6.5.5-10,0-13.5-3.4-22.9-10.1-28.3-5.9-4.5-15.2-6.8-27.8-6.8Z"/>
      <rect class="cls-2" x="568.7" y="223.3" width="28.5" height="28.5"/>
    </g>
  </g>
</svg>